<svg height="100.88387" viewBox="0 0 400 100.88387" width="400" xmlns="http://www.w3.org/2000/svg"><g fill="#b52133"><path d="m63.922295 51.019468c0-17.649734-14.31136-31.961107-31.961107-31.961107-5.380867 0-10.451814 1.33816-14.902974 3.690506l23.974334 23.974361c2.155173 2.14108 2.267853 5.57808.26756 7.86l-22.396734 25.608321c3.986347 1.788947 8.409374 2.78904 13.057734 2.78904 17.649747 0 31.961121-14.311373 31.961121-31.961121m-34.848735.042267-21.1149071-21.129014c-4.9442135 5.6344-7.9585869 13.001374-7.9585869 21.086747 0 8.817827 3.5778135 16.804561 9.3530936 22.579854zm0 0"/><path d="m88.586856 78.797029h11.733654v-27.270481c0-7.05708.40848-9.74748 2.35235-12.7478 2.14106-3.634214 5.50764-5.296334 10.39548-5.296334 1.43674 0 2.25376.0984 4.08493.619774l3.15527-10.578574c-3.05668-1.140973-4.47936-1.45088-6.42322-1.45088-6.42321 0-11.01525 3.014413-14.57901 9.55032v-8.620613h-10.719454zm0 0"/><path d="m144.05752 30.890601c7.64869 0 12.33931 5.493507 12.84643 15.029747h-26.62256c1.0142-9.437613 6.22604-15.029747 13.77613-15.029747m24.60821 23.636267c.11253-1.54944.11253-2.591826.11253-3.4088 0-18.255454-8.97277-29.256614-23.87575-29.256614-14.98749 0-25.50973 11.930827-25.50973 29.143921 0 17.114507 11.32516 28.721361 28.27061 28.721361 4.78922 0 10.09964-1.028293 14.38179-2.690453.81697-.40848 1.94385-.929667 3.56375-1.549467l-3.56375-8.099427c-6.22604 2.28192-9.28267 3.113-13.3676 3.113-10.31096 0-16.63559-5.803414-17.55116-15.973521zm0 0"/><path d="m200.06343 31.721668c8.76146 0 14.0719 7.042987 14.0719 18.875214 0 11.719547-5.31044 18.76256-13.97331 18.76256-8.87419 0-14.08599-6.944427-14.08599-18.76256 0-11.719547 5.31043-18.875214 13.9874-18.875214m14.57898-1.02828c-1.0142-1.563534-1.63396-2.084747-2.64815-3.014414-3.67644-3.732773-9.08547-5.81752-14.49449-5.81752-13.6775 0-23.15739 12.142134-23.15739 29.242548 0 17.227147 8.87419 28.214214 23.05877 28.214214 7.24023 0 12.76194-2.901693 16.73418-8.817827v5.704827c0 9.437613-6.5218 15.241067-17.14267 15.241067-4.88784 0-9.78975-1.140987-15.10019-3.422907l-3.56374 8.409334c2.14106.929667 3.15525 1.33816 4.69062 1.859333 4.90195 1.66216 10.19828 2.591827 15.19882 2.591827 16.83276 0 27.3409-9.846107 27.3409-25.608321v-52.273108h-10.91666zm0 0"/><path d="m283.63562 30.989188c9.18406 0 15.31146 7.986733 15.31146 19.818974 0 11.70548-6.1274 19.692227-15.31146 19.692227-9.18408 0-15.2974-7.986747-15.2974-19.692227 0-11.832241 6.11332-19.818974 15.2974-19.818974m-27.3409 19.9176c0 17.100401 11.01521 28.932641 27.3409 28.932641 16.22707 0 27.35498-11.83224 27.35498-29.031267 0-17.325748-11.12791-29.045295-27.35498-29.045295-16.32569 0-27.3409 11.719547-27.3409 29.143921"/><path d="m247.33601 78.797029h-11.73366v-55.794588h11.73366zm0 0"/><path d="m248.09666 6.733107c0-3.704627-2.97215-6.733107-6.62043-6.733107-3.66234 0-6.63449 3.02848-6.63449 6.733107 0 3.718707 2.97215 6.747187 6.63449 6.747187 3.64828 0 6.62043-3.02848 6.62043-6.747187"/><path d="m347.20569 78.797029h-11.71955v-55.794588h11.71955zm0 0"/><path d="m347.98044 6.733107c0-3.704627-2.98626-6.733107-6.63452-6.733107-3.64828 0-6.6345 3.02848-6.6345 6.733107 0 3.718707 2.98622 6.747187 6.6345 6.747187 3.64826 0 6.63452-3.02848 6.63452-6.747187"/><path d="m354.68536 23.030601h45.31464v10.52224l-16.91728.05627.0421 45.173801h-11.67718v-45.173804l-16.76233-.05627zm0 0"/></g></svg>